#N canvas 32 32 450 300 12;
#X obj 214 26 inlet control_switch;
#X obj 54 47 inlet~ signal_in;
#X obj 101 250 outlet~;
#X obj 101 211 *~;
#X obj 215 56 sel 0;
#X obj 256 93 bng 15 250 50 0 empty empty empty 17 7 0 10 #fcfcfc #000000
#000000;
#X floatatom 166 160 5 0 0 0 - - - 0;
#X msg 256 113 1;
#X msg 194 86 0;
#X connect 0 0 4 0;
#X connect 1 0 3 0;
#X connect 3 0 2 0;
#X connect 4 0 8 0;
#X connect 4 1 5 0;
#X connect 5 0 7 0;
#X connect 6 0 3 1;
#X connect 7 0 6 0;
#X connect 8 0 6 0;
