#N canvas 839 207 740 633 12;
#N canvas 103 161 772 550 inputs 0;
#X obj 33 37 r Right_FT1X;
#X obj 153 37 r Right_FT1Y;
#X obj 273 38 r Right_FT1Z;
#X obj 34 99 r Right_PVX;
#X obj 34 150 r Right_RotX;
#X obj 272 97 r Right_Time;
#X obj 142 99 r Right_PinchStr;
#X obj 165 149 r Right_PinchDist;
#X obj 29 204 r Right_PalmX;
#X restore 16 21 pd inputs;
#N canvas 584 249 960 669 Fist_Mapping 0;
#N canvas 236 201 864 521 LeftFingers 0;
#N canvas 104 104 675 488 left_finger1_palmDistance 0;
#X obj 15 16 r Left_FT1X;
#X obj 219 17 r Left_FT1Y;
#X obj 421 17 r Left_FT1Z;
#X obj 103 17 r Left_PalmX;
#X obj 305 17 r Left_PalmY;
#X obj 508 18 r Left_PalmZ;
#X obj 103 64 t b f;
#X obj 86 114 -;
#X obj 86 151 abs;
#X obj 86 183 *;
#X obj 305 59 t b f;
#X obj 289 115 -;
#X obj 289 152 abs;
#X obj 289 189 *;
#X obj 234 240 t b f;
#X obj 187 290 +;
#X obj 280 368 +;
#X obj 508 63 t b f;
#X obj 492 119 -;
#X obj 492 156 abs;
#X obj 492 193 *;
#X obj 437 244 t b f;
#X obj 279 404 sqrt;
#X obj 279 441 s Left_F1TPD;
#X connect 0 0 7 0;
#X connect 1 0 11 0;
#X connect 2 0 18 0;
#X connect 3 0 6 0;
#X connect 4 0 10 0;
#X connect 5 0 17 0;
#X connect 6 0 7 0;
#X connect 6 1 7 1;
#X connect 7 0 8 0;
#X connect 8 0 9 0;
#X connect 8 0 9 1;
#X connect 9 0 15 0;
#X connect 10 0 11 0;
#X connect 10 1 11 1;
#X connect 11 0 12 0;
#X connect 12 0 13 0;
#X connect 12 0 13 1;
#X connect 13 0 14 0;
#X connect 14 0 15 0;
#X connect 14 1 15 1;
#X connect 15 0 16 0;
#X connect 16 0 22 0;
#X connect 17 0 18 0;
#X connect 17 1 18 1;
#X connect 18 0 19 0;
#X connect 19 0 20 0;
#X connect 19 0 20 1;
#X connect 20 0 21 0;
#X connect 21 0 16 0;
#X connect 21 1 16 1;
#X connect 22 0 23 0;
#X restore 10 9 pd left_finger1_palmDistance;
#N canvas 104 104 675 488 left_finger2_palmDistance 0;
#X obj 102 17 r Left_PalmX;
#X obj 306 17 r Left_PalmY;
#X obj 508 18 r Left_PalmZ;
#X obj 103 64 t b f;
#X obj 86 114 -;
#X obj 86 151 abs;
#X obj 86 183 *;
#X obj 305 59 t b f;
#X obj 289 115 -;
#X obj 289 152 abs;
#X obj 289 189 *;
#X obj 234 240 t b f;
#X obj 187 290 +;
#X obj 280 368 +;
#X obj 508 63 t b f;
#X obj 492 119 -;
#X obj 492 156 abs;
#X obj 492 193 *;
#X obj 437 244 t b f;
#X obj 279 404 sqrt;
#X obj 14 16 r Left_FT2X;
#X obj 219 17 r Left_FT2Y;
#X obj 422 17 r Left_FT2Z;
#X obj 279 441 s Left_F2TPD;
#X connect 0 0 3 0;
#X connect 1 0 7 0;
#X connect 2 0 14 0;
#X connect 3 0 4 0;
#X connect 3 1 4 1;
#X connect 4 0 5 0;
#X connect 5 0 6 0;
#X connect 5 0 6 1;
#X connect 6 0 12 0;
#X connect 7 0 8 0;
#X connect 7 1 8 1;
#X connect 8 0 9 0;
#X connect 9 0 10 0;
#X connect 9 0 10 1;
#X connect 10 0 11 0;
#X connect 11 0 12 0;
#X connect 11 1 12 1;
#X connect 12 0 13 0;
#X connect 13 0 19 0;
#X connect 14 0 15 0;
#X connect 14 1 15 1;
#X connect 15 0 16 0;
#X connect 16 0 17 0;
#X connect 16 0 17 1;
#X connect 17 0 18 0;
#X connect 18 0 13 0;
#X connect 18 1 13 1;
#X connect 19 0 23 0;
#X connect 20 0 4 0;
#X connect 21 0 8 0;
#X connect 22 0 15 0;
#X restore 10 38 pd left_finger2_palmDistance;
#N canvas 104 104 675 488 left_finger3_palmDistance 0;
#X obj 103 17 r Left_PalmX;
#X obj 305 17 r Left_PalmY;
#X obj 508 18 r Left_PalmZ;
#X obj 103 64 t b f;
#X obj 86 114 -;
#X obj 86 151 abs;
#X obj 86 183 *;
#X obj 305 59 t b f;
#X obj 289 115 -;
#X obj 289 152 abs;
#X obj 289 189 *;
#X obj 234 240 t b f;
#X obj 187 290 +;
#X obj 280 368 +;
#X obj 508 63 t b f;
#X obj 492 119 -;
#X obj 492 156 abs;
#X obj 492 193 *;
#X obj 437 244 t b f;
#X obj 279 404 sqrt;
#X obj 15 15 r Left_FT3X;
#X obj 219 17 r Left_FT3Y;
#X obj 421 17 r Left_FT3Z;
#X obj 279 441 s Left_F3TPD;
#X connect 0 0 3 0;
#X connect 1 0 7 0;
#X connect 2 0 14 0;
#X connect 3 0 4 0;
#X connect 3 1 4 1;
#X connect 4 0 5 0;
#X connect 5 0 6 0;
#X connect 5 0 6 1;
#X connect 6 0 12 0;
#X connect 7 0 8 0;
#X connect 7 1 8 1;
#X connect 8 0 9 0;
#X connect 9 0 10 0;
#X connect 9 0 10 1;
#X connect 10 0 11 0;
#X connect 11 0 12 0;
#X connect 11 1 12 1;
#X connect 12 0 13 0;
#X connect 13 0 19 0;
#X connect 14 0 15 0;
#X connect 14 1 15 1;
#X connect 15 0 16 0;
#X connect 16 0 17 0;
#X connect 16 0 17 1;
#X connect 17 0 18 0;
#X connect 18 0 13 0;
#X connect 18 1 13 1;
#X connect 19 0 23 0;
#X connect 20 0 4 0;
#X connect 21 0 8 0;
#X connect 22 0 15 0;
#X restore 10 65 pd left_finger3_palmDistance;
#N canvas 104 104 675 488 left_finger4_palmDistance 0;
#X obj 103 17 r Left_PalmX;
#X obj 305 17 r Left_PalmY;
#X obj 508 18 r Left_PalmZ;
#X obj 103 64 t b f;
#X obj 86 114 -;
#X obj 86 151 abs;
#X obj 86 183 *;
#X obj 305 59 t b f;
#X obj 289 115 -;
#X obj 289 152 abs;
#X obj 289 189 *;
#X obj 234 240 t b f;
#X obj 187 290 +;
#X obj 280 368 +;
#X obj 508 63 t b f;
#X obj 492 119 -;
#X obj 492 156 abs;
#X obj 492 193 *;
#X obj 437 244 t b f;
#X obj 279 404 sqrt;
#X obj 15 16 r Left_FT4X;
#X obj 219 17 r Left_FT4Y;
#X obj 421 17 r Left_FT4Z;
#X obj 279 441 s Left_F4TPD;
#X connect 0 0 3 0;
#X connect 1 0 7 0;
#X connect 2 0 14 0;
#X connect 3 0 4 0;
#X connect 3 1 4 1;
#X connect 4 0 5 0;
#X connect 5 0 6 0;
#X connect 5 0 6 1;
#X connect 6 0 12 0;
#X connect 7 0 8 0;
#X connect 7 1 8 1;
#X connect 8 0 9 0;
#X connect 9 0 10 0;
#X connect 9 0 10 1;
#X connect 10 0 11 0;
#X connect 11 0 12 0;
#X connect 11 1 12 1;
#X connect 12 0 13 0;
#X connect 13 0 19 0;
#X connect 14 0 15 0;
#X connect 14 1 15 1;
#X connect 15 0 16 0;
#X connect 16 0 17 0;
#X connect 16 0 17 1;
#X connect 17 0 18 0;
#X connect 18 0 13 0;
#X connect 18 1 13 1;
#X connect 19 0 23 0;
#X connect 20 0 4 0;
#X connect 21 0 8 0;
#X connect 22 0 15 0;
#X restore 11 94 pd left_finger4_palmDistance;
#N canvas 104 104 675 488 left_finger5_palmDistance 0;
#X obj 103 17 r Left_PalmX;
#X obj 305 17 r Left_PalmY;
#X obj 508 18 r Left_PalmZ;
#X obj 103 64 t b f;
#X obj 86 114 -;
#X obj 86 151 abs;
#X obj 86 183 *;
#X obj 305 59 t b f;
#X obj 289 115 -;
#X obj 289 152 abs;
#X obj 289 189 *;
#X obj 234 240 t b f;
#X obj 187 290 +;
#X obj 280 368 +;
#X obj 508 63 t b f;
#X obj 492 119 -;
#X obj 492 156 abs;
#X obj 492 193 *;
#X obj 437 244 t b f;
#X obj 279 404 sqrt;
#X obj 15 16 r Left_FT5X;
#X obj 219 17 r Left_FT5Y;
#X obj 421 17 r Left_FT5Z;
#X obj 279 441 s Left_F5TPD;
#X connect 0 0 3 0;
#X connect 1 0 7 0;
#X connect 2 0 14 0;
#X connect 3 0 4 0;
#X connect 3 1 4 1;
#X connect 4 0 5 0;
#X connect 5 0 6 0;
#X connect 5 0 6 1;
#X connect 6 0 12 0;
#X connect 7 0 8 0;
#X connect 7 1 8 1;
#X connect 8 0 9 0;
#X connect 9 0 10 0;
#X connect 9 0 10 1;
#X connect 10 0 11 0;
#X connect 11 0 12 0;
#X connect 11 1 12 1;
#X connect 12 0 13 0;
#X connect 13 0 19 0;
#X connect 14 0 15 0;
#X connect 14 1 15 1;
#X connect 15 0 16 0;
#X connect 16 0 17 0;
#X connect 16 0 17 1;
#X connect 17 0 18 0;
#X connect 18 0 13 0;
#X connect 18 1 13 1;
#X connect 19 0 23 0;
#X connect 20 0 4 0;
#X connect 21 0 8 0;
#X connect 22 0 15 0;
#X restore 11 124 pd left_finger5_palmDistance;
#X obj 256 30 r Left_F1TPD;
#X obj 377 30 r Left_F2TPD;
#X obj 490 30 r Left_F3TPD;
#X obj 606 29 r Left_F4TPD;
#X obj 724 27 r Left_F5TPD;
#X obj 378 83 t b f;
#X obj 360 132 +;
#X obj 723 84 t b f;
#X obj 705 133 +;
#X obj 474 215 t b f;
#X obj 456 264 +;
#X obj 566 306 t b f;
#X obj 548 355 +;
#X obj 548 452 s Left_FistPalmIndex;
#X obj 549 404 scale 0.2 0.34 0 1;
#X connect 5 0 11 0;
#X connect 6 0 10 0;
#X connect 7 0 14 0;
#X connect 8 0 13 0;
#X connect 9 0 12 0;
#X connect 10 0 11 0;
#X connect 10 1 11 1;
#X connect 11 0 15 0;
#X connect 12 0 13 0;
#X connect 12 1 13 1;
#X connect 13 0 16 0;
#X connect 14 0 15 0;
#X connect 14 1 15 1;
#X connect 15 0 17 0;
#X connect 16 0 17 0;
#X connect 16 1 17 1;
#X connect 17 0 19 0;
#X connect 19 0 18 0;
#X restore 19 32 pd LeftFingers;
#N canvas 130 130 864 521 RightFingers 0;
#X obj 378 83 t b f;
#X obj 360 132 +;
#X obj 723 84 t b f;
#X obj 705 133 +;
#X obj 474 215 t b f;
#X obj 456 264 +;
#X obj 566 306 t b f;
#X obj 548 355 +;
#N canvas 31 96 675 488 right_finger1_palmDistance 0;
#X obj 108 62 t b f;
#X obj 86 114 -;
#X obj 86 151 abs;
#X obj 86 183 *;
#X obj 315 58 t b f;
#X obj 289 115 -;
#X obj 289 152 abs;
#X obj 289 189 *;
#X obj 234 240 t b f;
#X obj 187 290 +;
#X obj 280 368 +;
#X obj 508 63 t b f;
#X obj 492 119 -;
#X obj 492 156 abs;
#X obj 492 193 *;
#X obj 437 244 t b f;
#X obj 279 404 sqrt;
#X obj 15 16 r Right_FT1X;
#X obj 109 15 r Right_PalmX;
#X obj 219 17 r Right_FT1Y;
#X obj 316 16 r Right_PalmY;
#X obj 421 17 r Right_FT1Z;
#X obj 518 17 r Right_PalmZ;
#X obj 279 441 s Right_F1TPD;
#X connect 0 0 1 0;
#X connect 0 1 1 1;
#X connect 1 0 2 0;
#X connect 2 0 3 0;
#X connect 2 0 3 1;
#X connect 3 0 9 0;
#X connect 4 0 5 0;
#X connect 4 1 5 1;
#X connect 5 0 6 0;
#X connect 6 0 7 0;
#X connect 6 0 7 1;
#X connect 7 0 8 0;
#X connect 8 0 9 0;
#X connect 8 1 9 1;
#X connect 9 0 10 0;
#X connect 10 0 16 0;
#X connect 11 0 12 0;
#X connect 11 1 12 1;
#X connect 12 0 13 0;
#X connect 13 0 14 0;
#X connect 13 0 14 1;
#X connect 14 0 15 0;
#X connect 15 0 10 0;
#X connect 15 1 10 1;
#X connect 16 0 23 0;
#X connect 17 0 1 0;
#X connect 18 0 0 0;
#X connect 19 0 5 0;
#X connect 20 0 4 0;
#X connect 21 0 12 0;
#X connect 22 0 11 0;
#X restore 10 10 pd right_finger1_palmDistance;
#N canvas 31 96 675 488 right_finger2_palmDistance 0;
#X obj 108 62 t b f;
#X obj 86 114 -;
#X obj 86 151 abs;
#X obj 86 183 *;
#X obj 315 58 t b f;
#X obj 289 115 -;
#X obj 289 152 abs;
#X obj 289 189 *;
#X obj 234 240 t b f;
#X obj 187 290 +;
#X obj 280 368 +;
#X obj 508 63 t b f;
#X obj 492 119 -;
#X obj 492 156 abs;
#X obj 492 193 *;
#X obj 437 244 t b f;
#X obj 279 404 sqrt;
#X obj 109 15 r Right_PalmX;
#X obj 316 16 r Right_PalmY;
#X obj 518 17 r Right_PalmZ;
#X obj 14 18 r Right_FT2X;
#X obj 220 17 r Right_FT2Y;
#X obj 421 17 r Right_FT2Z;
#X obj 279 441 s Right_F2TPD;
#X connect 0 0 1 0;
#X connect 0 1 1 1;
#X connect 1 0 2 0;
#X connect 2 0 3 0;
#X connect 2 0 3 1;
#X connect 3 0 9 0;
#X connect 4 0 5 0;
#X connect 4 1 5 1;
#X connect 5 0 6 0;
#X connect 6 0 7 0;
#X connect 6 0 7 1;
#X connect 7 0 8 0;
#X connect 8 0 9 0;
#X connect 8 1 9 1;
#X connect 9 0 10 0;
#X connect 10 0 16 0;
#X connect 11 0 12 0;
#X connect 11 1 12 1;
#X connect 12 0 13 0;
#X connect 13 0 14 0;
#X connect 13 0 14 1;
#X connect 14 0 15 0;
#X connect 15 0 10 0;
#X connect 15 1 10 1;
#X connect 16 0 23 0;
#X connect 17 0 0 0;
#X connect 18 0 4 0;
#X connect 19 0 11 0;
#X connect 20 0 1 0;
#X connect 21 0 5 0;
#X connect 22 0 12 0;
#X restore 11 38 pd right_finger2_palmDistance;
#N canvas 31 96 675 488 right_finger3_palmDistance 0;
#X obj 108 62 t b f;
#X obj 86 114 -;
#X obj 86 151 abs;
#X obj 86 183 *;
#X obj 315 58 t b f;
#X obj 289 115 -;
#X obj 289 152 abs;
#X obj 289 189 *;
#X obj 234 240 t b f;
#X obj 187 290 +;
#X obj 280 368 +;
#X obj 508 63 t b f;
#X obj 492 119 -;
#X obj 492 156 abs;
#X obj 492 193 *;
#X obj 437 244 t b f;
#X obj 279 404 sqrt;
#X obj 109 15 r Right_PalmX;
#X obj 316 16 r Right_PalmY;
#X obj 518 17 r Right_PalmZ;
#X obj 15 16 r Right_FT3X;
#X obj 220 17 r Right_FT3Y;
#X obj 421 17 r Right_FT3Z;
#X obj 277 441 s Right_F3TPD;
#X connect 0 0 1 0;
#X connect 0 1 1 1;
#X connect 1 0 2 0;
#X connect 2 0 3 0;
#X connect 2 0 3 1;
#X connect 3 0 9 0;
#X connect 4 0 5 0;
#X connect 4 1 5 1;
#X connect 5 0 6 0;
#X connect 6 0 7 0;
#X connect 6 0 7 1;
#X connect 7 0 8 0;
#X connect 8 0 9 0;
#X connect 8 1 9 1;
#X connect 9 0 10 0;
#X connect 10 0 16 0;
#X connect 11 0 12 0;
#X connect 11 1 12 1;
#X connect 12 0 13 0;
#X connect 13 0 14 0;
#X connect 13 0 14 1;
#X connect 14 0 15 0;
#X connect 15 0 10 0;
#X connect 15 1 10 1;
#X connect 16 0 23 0;
#X connect 17 0 0 0;
#X connect 18 0 4 0;
#X connect 19 0 11 0;
#X connect 20 0 1 0;
#X connect 21 0 5 0;
#X connect 22 0 12 0;
#X restore 11 63 pd right_finger3_palmDistance;
#N canvas 31 96 675 488 right_finger4_palmDistance 0;
#X obj 108 62 t b f;
#X obj 86 114 -;
#X obj 86 151 abs;
#X obj 86 183 *;
#X obj 315 58 t b f;
#X obj 289 115 -;
#X obj 289 152 abs;
#X obj 289 189 *;
#X obj 234 240 t b f;
#X obj 187 290 +;
#X obj 280 368 +;
#X obj 508 63 t b f;
#X obj 492 119 -;
#X obj 492 156 abs;
#X obj 492 193 *;
#X obj 437 244 t b f;
#X obj 279 404 sqrt;
#X obj 109 15 r Right_PalmX;
#X obj 316 16 r Right_PalmY;
#X obj 518 17 r Right_PalmZ;
#X obj 15 16 r Right_FT4X;
#X obj 219 17 r Right_FT4Y;
#X obj 421 17 r Right_FT4Z;
#X obj 279 441 s Right_F4TPD;
#X connect 0 0 1 0;
#X connect 0 1 1 1;
#X connect 1 0 2 0;
#X connect 2 0 3 0;
#X connect 2 0 3 1;
#X connect 3 0 9 0;
#X connect 4 0 5 0;
#X connect 4 1 5 1;
#X connect 5 0 6 0;
#X connect 6 0 7 0;
#X connect 6 0 7 1;
#X connect 7 0 8 0;
#X connect 8 0 9 0;
#X connect 8 1 9 1;
#X connect 9 0 10 0;
#X connect 10 0 16 0;
#X connect 11 0 12 0;
#X connect 11 1 12 1;
#X connect 12 0 13 0;
#X connect 13 0 14 0;
#X connect 13 0 14 1;
#X connect 14 0 15 0;
#X connect 15 0 10 0;
#X connect 15 1 10 1;
#X connect 16 0 23 0;
#X connect 17 0 0 0;
#X connect 18 0 4 0;
#X connect 19 0 11 0;
#X connect 20 0 1 0;
#X connect 21 0 5 0;
#X connect 22 0 12 0;
#X restore 11 92 pd right_finger4_palmDistance;
#N canvas 31 96 675 488 right_finger5_palmDistance 0;
#X obj 108 62 t b f;
#X obj 86 114 -;
#X obj 86 151 abs;
#X obj 86 183 *;
#X obj 315 58 t b f;
#X obj 289 115 -;
#X obj 289 152 abs;
#X obj 289 189 *;
#X obj 234 240 t b f;
#X obj 187 290 +;
#X obj 280 368 +;
#X obj 508 63 t b f;
#X obj 492 119 -;
#X obj 492 156 abs;
#X obj 492 193 *;
#X obj 437 244 t b f;
#X obj 279 404 sqrt;
#X obj 109 15 r Right_PalmX;
#X obj 316 16 r Right_PalmY;
#X obj 518 17 r Right_PalmZ;
#X obj 16 15 r Right_FT5X;
#X obj 219 17 r Right_FT5Y;
#X obj 421 17 r Right_FT5Z;
#X obj 279 441 s Right_F5TPD;
#X connect 0 0 1 0;
#X connect 0 1 1 1;
#X connect 1 0 2 0;
#X connect 2 0 3 0;
#X connect 2 0 3 1;
#X connect 3 0 9 0;
#X connect 4 0 5 0;
#X connect 4 1 5 1;
#X connect 5 0 6 0;
#X connect 6 0 7 0;
#X connect 6 0 7 1;
#X connect 7 0 8 0;
#X connect 8 0 9 0;
#X connect 8 1 9 1;
#X connect 9 0 10 0;
#X connect 10 0 16 0;
#X connect 11 0 12 0;
#X connect 11 1 12 1;
#X connect 12 0 13 0;
#X connect 13 0 14 0;
#X connect 13 0 14 1;
#X connect 14 0 15 0;
#X connect 15 0 10 0;
#X connect 15 1 10 1;
#X connect 16 0 23 0;
#X connect 17 0 0 0;
#X connect 18 0 4 0;
#X connect 19 0 11 0;
#X connect 20 0 1 0;
#X connect 21 0 5 0;
#X connect 22 0 12 0;
#X restore 12 121 pd right_finger5_palmDistance;
#X obj 256 30 r Right_F1TPD;
#X obj 377 30 r Right_F2TPD;
#X obj 490 30 r Right_F3TPD;
#X obj 606 29 r Right_F4TPD;
#X obj 724 27 r Right_F5TPD;
#X obj 547 451 s Right_FistPalmIndex;
#X obj 548 404 scale 0.2 0.34 0 1;
#X connect 0 0 1 0;
#X connect 0 1 1 1;
#X connect 1 0 5 0;
#X connect 2 0 3 0;
#X connect 2 1 3 1;
#X connect 3 0 6 0;
#X connect 4 0 5 0;
#X connect 4 1 5 1;
#X connect 5 0 7 0;
#X connect 6 0 7 0;
#X connect 6 1 7 1;
#X connect 7 0 19 0;
#X connect 13 0 1 0;
#X connect 14 0 0 0;
#X connect 15 0 4 0;
#X connect 16 0 3 0;
#X connect 17 0 2 0;
#X connect 19 0 18 0;
#X restore 20 63 pd RightFingers;
#X obj 520 37 r Left_FistPalmIndex;
#X obj 225 37 r Right_FistPalmIndex;
#X restore 16 46 pd Fist_Mapping;
#N canvas 142 186 958 553 pitch_system 0;
#X msg 502 120 261.63 293.66 329.63 349.23 392 440 493.88 523.25;
#X floatatom 158 458 5 0 0 0 - - - 0;
#X floatatom 149 342 4 0 0 0 - - - 0;
#X msg 484 312 resize 8;
#X obj 479 77 loadbang;
#X msg 529 180 220 246.94 261.63 293.66 329.63 349.23 392 440;
#X obj 482 354 array define C-Major;
#X obj 495 388 array define A-Nat-Minor;
#X obj 500 148 array set C-Major;
#X obj 528 206 array set A-Nat-Minor;
#X msg 554 235 220 246.94 261.63 293.66 329.63 349.23 415.3 440;
#X obj 553 263 array set A-Harm-Minor;
#X msg 605 293 220 246.94 261.63 293.66 329.63 369.99 415.3 440;
#X obj 510 427 array define A-Harm-Minor;
#X obj 527 460 array define A-Mel-Minor;
#X obj 606 319 array set A-Mel-Minor;
#N canvas 697 175 541 300 select_scale 0;
#X obj 88 34 inlet cord index;
#X obj 124 216 outlet;
#X obj 31 87 select 0;
#X msg 32 116 set C-Major;
#X obj 122 86 select 1;
#X obj 243 85 select 2;
#X obj 367 84 select 3;
#X msg 125 115 set A-Nat-Minor;
#X msg 244 113 set A-Harm-Minor;
#X msg 368 112 set A-Mel-Minor;
#X connect 0 0 2 0;
#X connect 0 0 4 0;
#X connect 0 0 5 0;
#X connect 0 0 6 0;
#X connect 2 0 3 0;
#X connect 3 0 1 0;
#X connect 4 0 7 0;
#X connect 5 0 8 0;
#X connect 6 0 9 0;
#X connect 7 0 1 0;
#X connect 8 0 1 0;
#X connect 9 0 1 0;
#X restore 269 205 pd select_scale;
#X floatatom 270 179 5 0 0 0 - - - 0;
#X obj 158 388 tabread;
#X obj 270 231 t b a;
#X text 140 182 scale index (0-3);
#X text 25 341 note index (0-7);
#X text 199 458 frequency (Hz);
#X obj 80 247 inlet cord note_index;
#X obj 81 272 scale 0 1 0 7.99;
#X obj 81 296 int;
#X obj 270 103 inlet cord scale_index;
#X obj 270 127 scale 0 1 0 3.99;
#X obj 270 151 int;
#X obj 159 490 outlet frequency;
#X obj 32 393 print noteIndex;
#X connect 0 0 8 0;
#X connect 1 0 29 0;
#X connect 2 0 18 0;
#X connect 3 0 6 0;
#X connect 3 0 7 0;
#X connect 4 0 3 0;
#X connect 4 0 0 0;
#X connect 4 0 5 0;
#X connect 4 0 10 0;
#X connect 4 0 12 0;
#X connect 4 0 13 0;
#X connect 4 0 14 0;
#X connect 5 0 9 0;
#X connect 10 0 11 0;
#X connect 12 0 15 0;
#X connect 16 0 19 0;
#X connect 17 0 16 0;
#X connect 18 0 1 0;
#X connect 19 0 2 0;
#X connect 19 1 18 0;
#X connect 23 0 24 0;
#X connect 24 0 25 0;
#X connect 25 0 2 0;
#X connect 26 0 27 0;
#X connect 27 0 28 0;
#X connect 28 0 17 0;
#X restore 166 281 pd pitch_system;
#X obj 170 378 line~;
#X obj 166 314 t f b;
#X msg 199 345 50;
#X obj 171 478 osc~;
#X obj 162 582 dac~;
#X obj 173 450 +~;
#N canvas -1307 72 605 621 vibrato 1;
#X obj 63 217 osc~;
#X obj 63 295 *~;
#X obj 295 183 scale 0 0.2 1 5;
#X obj 172 94 scale 0 0.2 3 7;
#X obj 172 145 t f b;
#X obj 174 194 line~;
#X msg 203 169 50;
#X obj 171 39 r Right_PalmZ;
#X obj 172 118 clip 3 7;
#X obj 295 209 clip 1 5;
#X obj 67 426 outlet~ vibrato;
#X connect 0 0 1 0;
#X connect 1 0 10 0;
#X connect 2 0 9 0;
#X connect 3 0 8 0;
#X connect 4 0 5 0;
#X connect 4 1 6 0;
#X connect 5 0 0 0;
#X connect 6 0 5 1;
#X connect 7 0 3 0;
#X connect 7 0 2 0;
#X connect 8 0 4 0;
#X connect 9 0 1 1;
#X restore 239 414 pd vibrato;
#X obj 455 290 r Right_PalmY;
#X obj 452 334 scale 0.1 0.3 0 1;
#X obj 452 358 clip 0 1;
#X obj 451 390 sig~;
#X obj 453 482 clip~ 0 0.5;
#X obj 453 506 scale~ 0 0.5 0 1;
#X obj 171 547 *~;
#X obj 172 502 *~ 0.2;
#X obj 122 99 r Left_PalmX;
#X obj 288 136 r Left_FistPalmIndex;
#X obj 287 194 scale 0.2 0.7 0 1;
#X obj 287 220 clip 0 1;
#X obj 452 418 lop~ 10;
#X obj 559 60 t b float;
#X obj 522 114 max;
#X floatatom 522 139 5 0 0 0 - - - 0;
#X obj 432 19 r Left_Active;
#X obj 569 13 r Right_Active;
#X obj 522 162 t f b;
#X obj 520 213 line~;
#X msg 552 186 300;
#X obj 520 237 s~ EitherActive;
#X obj 453 455 *~;
#X obj 550 419 r~ EitherActive;
#X obj 122 124 + 0.35;
#X obj 123 147 clip 0 0.35;
#X obj 122 179 scale 0 0.35 0 1;
#X connect 2 0 4 0;
#X connect 3 0 8 0;
#X connect 4 0 3 0;
#X connect 4 1 5 0;
#X connect 5 0 3 1;
#X connect 6 0 17 0;
#X connect 8 0 6 0;
#X connect 9 0 8 1;
#X connect 10 0 11 0;
#X connect 11 0 12 0;
#X connect 12 0 13 0;
#X connect 13 0 22 0;
#X connect 14 0 15 0;
#X connect 15 0 16 1;
#X connect 16 0 7 0;
#X connect 16 0 7 1;
#X connect 17 0 16 0;
#X connect 18 0 34 0;
#X connect 19 0 20 0;
#X connect 20 0 21 0;
#X connect 21 0 2 1;
#X connect 22 0 32 0;
#X connect 23 0 24 0;
#X connect 23 1 24 1;
#X connect 24 0 25 0;
#X connect 25 0 28 0;
#X connect 26 0 24 0;
#X connect 27 0 23 0;
#X connect 28 0 29 0;
#X connect 28 1 30 0;
#X connect 29 0 31 0;
#X connect 30 0 29 1;
#X connect 32 0 14 0;
#X connect 33 0 32 1;
#X connect 34 0 35 0;
#X connect 35 0 36 0;
#X connect 36 0 2 0;
